<mxfile host="app.diagrams.net" modified="2022-06-17T05:57:07.480Z" agent="5.0 (Windows NT 10.0; Win64; x64) AppleWebKit/537.36 (KHTML, like Gecko) Chrome/102.0.0.0 Safari/537.36" etag="-M1eLcTasDl_m35YOkHI" version="20.0.1" type="github">
  <diagram id="ZhocDkR8lt5FggO_uezO" name="Page-1">
    <mxGraphModel dx="806" dy="845" grid="1" gridSize="10" guides="1" tooltips="1" connect="1" arrows="1" fold="1" page="1" pageScale="1" pageWidth="827" pageHeight="1169" math="0" shadow="0">
      <root>
        <mxCell id="0" />
        <mxCell id="1" parent="0" />
        <mxCell id="38GUtMRrNBMTa_zb7Rhy-2" style="edgeStyle=orthogonalEdgeStyle;rounded=0;orthogonalLoop=1;jettySize=auto;html=1;entryX=0.5;entryY=0;entryDx=0;entryDy=0;" edge="1" parent="1" source="38GUtMRrNBMTa_zb7Rhy-1" target="38GUtMRrNBMTa_zb7Rhy-33">
          <mxGeometry relative="1" as="geometry">
            <mxPoint x="170" y="170" as="targetPoint" />
          </mxGeometry>
        </mxCell>
        <mxCell id="38GUtMRrNBMTa_zb7Rhy-1" value="start" style="strokeWidth=2;html=1;shape=mxgraph.flowchart.terminator;whiteSpace=wrap;" vertex="1" parent="1">
          <mxGeometry x="120" y="70" width="100" height="60" as="geometry" />
        </mxCell>
        <mxCell id="38GUtMRrNBMTa_zb7Rhy-4" style="edgeStyle=orthogonalEdgeStyle;rounded=0;orthogonalLoop=1;jettySize=auto;html=1;" edge="1" parent="1" source="38GUtMRrNBMTa_zb7Rhy-41" target="38GUtMRrNBMTa_zb7Rhy-5">
          <mxGeometry relative="1" as="geometry">
            <mxPoint x="180" y="530" as="targetPoint" />
            <mxPoint x="170" y="740" as="sourcePoint" />
          </mxGeometry>
        </mxCell>
        <mxCell id="38GUtMRrNBMTa_zb7Rhy-5" value="end" style="strokeWidth=2;html=1;shape=mxgraph.flowchart.terminator;whiteSpace=wrap;" vertex="1" parent="1">
          <mxGeometry x="120" y="780" width="100" height="60" as="geometry" />
        </mxCell>
        <mxCell id="38GUtMRrNBMTa_zb7Rhy-8" style="edgeStyle=orthogonalEdgeStyle;rounded=0;orthogonalLoop=1;jettySize=auto;html=1;entryX=0.5;entryY=0;entryDx=0;entryDy=0;entryPerimeter=0;" edge="1" parent="1" source="38GUtMRrNBMTa_zb7Rhy-6" target="38GUtMRrNBMTa_zb7Rhy-7">
          <mxGeometry relative="1" as="geometry" />
        </mxCell>
        <mxCell id="38GUtMRrNBMTa_zb7Rhy-6" value="void sort(int* v, int size)" style="rounded=1;whiteSpace=wrap;html=1;absoluteArcSize=1;arcSize=14;strokeWidth=2;" vertex="1" parent="1">
          <mxGeometry x="260" y="70" width="160" height="40" as="geometry" />
        </mxCell>
        <mxCell id="38GUtMRrNBMTa_zb7Rhy-15" style="edgeStyle=orthogonalEdgeStyle;rounded=0;orthogonalLoop=1;jettySize=auto;html=1;entryX=0.5;entryY=0;entryDx=0;entryDy=0;entryPerimeter=0;" edge="1" parent="1" source="38GUtMRrNBMTa_zb7Rhy-7" target="38GUtMRrNBMTa_zb7Rhy-12">
          <mxGeometry relative="1" as="geometry" />
        </mxCell>
        <mxCell id="38GUtMRrNBMTa_zb7Rhy-7" value="int i =1; i++" style="strokeWidth=2;html=1;shape=mxgraph.flowchart.loop_limit;whiteSpace=wrap;" vertex="1" parent="1">
          <mxGeometry x="270" y="150" width="140" height="60" as="geometry" />
        </mxCell>
        <mxCell id="38GUtMRrNBMTa_zb7Rhy-10" value="" style="strokeWidth=2;html=1;shape=mxgraph.flowchart.loop_limit;whiteSpace=wrap;rotation=-180;" vertex="1" parent="1">
          <mxGeometry x="290" y="680" width="100" height="60" as="geometry" />
        </mxCell>
        <mxCell id="38GUtMRrNBMTa_zb7Rhy-11" value="&#xa;&lt;span style=&quot;color: rgb(0, 0, 0); font-family: Helvetica; font-size: 12px; font-style: normal; font-variant-ligatures: normal; font-variant-caps: normal; font-weight: 400; letter-spacing: normal; orphans: 2; text-align: center; text-indent: 0px; text-transform: none; widows: 2; word-spacing: 0px; -webkit-text-stroke-width: 0px; background-color: rgb(248, 249, 250); text-decoration-thickness: initial; text-decoration-style: initial; text-decoration-color: initial; float: none; display: inline !important;&quot;&gt;&lt;span&gt;&amp;nbsp;&lt;/span&gt;i &amp;lt;size&lt;/span&gt;&#xa;&#xa;" style="text;html=1;strokeColor=none;fillColor=none;align=center;verticalAlign=middle;whiteSpace=wrap;rounded=0;" vertex="1" parent="1">
          <mxGeometry x="310" y="700" width="60" height="30" as="geometry" />
        </mxCell>
        <mxCell id="38GUtMRrNBMTa_zb7Rhy-17" style="edgeStyle=orthogonalEdgeStyle;rounded=0;orthogonalLoop=1;jettySize=auto;html=1;entryX=0.5;entryY=0;entryDx=0;entryDy=0;entryPerimeter=0;" edge="1" parent="1" source="38GUtMRrNBMTa_zb7Rhy-12" target="38GUtMRrNBMTa_zb7Rhy-16">
          <mxGeometry relative="1" as="geometry" />
        </mxCell>
        <mxCell id="38GUtMRrNBMTa_zb7Rhy-12" value="int j = i; j--" style="strokeWidth=2;html=1;shape=mxgraph.flowchart.loop_limit;whiteSpace=wrap;" vertex="1" parent="1">
          <mxGeometry x="290" y="270" width="100" height="60" as="geometry" />
        </mxCell>
        <mxCell id="38GUtMRrNBMTa_zb7Rhy-23" style="edgeStyle=orthogonalEdgeStyle;rounded=0;orthogonalLoop=1;jettySize=auto;html=1;entryX=0.5;entryY=1;entryDx=0;entryDy=0;entryPerimeter=0;" edge="1" parent="1" source="38GUtMRrNBMTa_zb7Rhy-13" target="38GUtMRrNBMTa_zb7Rhy-10">
          <mxGeometry relative="1" as="geometry" />
        </mxCell>
        <mxCell id="38GUtMRrNBMTa_zb7Rhy-13" value="" style="strokeWidth=2;html=1;shape=mxgraph.flowchart.loop_limit;whiteSpace=wrap;rotation=-180;" vertex="1" parent="1">
          <mxGeometry x="290" y="580" width="100" height="60" as="geometry" />
        </mxCell>
        <mxCell id="38GUtMRrNBMTa_zb7Rhy-14" value="&#xa;&lt;span style=&quot;color: rgb(0, 0, 0); font-family: Helvetica; font-size: 12px; font-style: normal; font-variant-ligatures: normal; font-variant-caps: normal; font-weight: 400; letter-spacing: normal; orphans: 2; text-align: center; text-indent: 0px; text-transform: none; widows: 2; word-spacing: 0px; -webkit-text-stroke-width: 0px; background-color: rgb(248, 249, 250); text-decoration-thickness: initial; text-decoration-style: initial; text-decoration-color: initial; float: none; display: inline !important;&quot;&gt;j &amp;gt;0&lt;/span&gt;&#xa;&#xa;" style="text;html=1;strokeColor=none;fillColor=none;align=center;verticalAlign=middle;whiteSpace=wrap;rounded=0;" vertex="1" parent="1">
          <mxGeometry x="314" y="600" width="60" height="30" as="geometry" />
        </mxCell>
        <mxCell id="38GUtMRrNBMTa_zb7Rhy-18" value="true" style="edgeStyle=orthogonalEdgeStyle;rounded=0;orthogonalLoop=1;jettySize=auto;html=1;" edge="1" parent="1" source="38GUtMRrNBMTa_zb7Rhy-16" target="38GUtMRrNBMTa_zb7Rhy-19">
          <mxGeometry relative="1" as="geometry">
            <mxPoint x="340" y="490" as="targetPoint" />
          </mxGeometry>
        </mxCell>
        <mxCell id="38GUtMRrNBMTa_zb7Rhy-21" value="false" style="edgeStyle=orthogonalEdgeStyle;rounded=0;orthogonalLoop=1;jettySize=auto;html=1;entryX=0.5;entryY=1;entryDx=0;entryDy=0;entryPerimeter=0;" edge="1" parent="1" source="38GUtMRrNBMTa_zb7Rhy-16" target="38GUtMRrNBMTa_zb7Rhy-13">
          <mxGeometry relative="1" as="geometry">
            <Array as="points">
              <mxPoint x="420" y="410" />
              <mxPoint x="420" y="550" />
              <mxPoint x="340" y="550" />
            </Array>
          </mxGeometry>
        </mxCell>
        <mxCell id="38GUtMRrNBMTa_zb7Rhy-16" value="(v[j - 1] &gt; v[j])" style="strokeWidth=2;html=1;shape=mxgraph.flowchart.decision;whiteSpace=wrap;" vertex="1" parent="1">
          <mxGeometry x="290" y="360" width="100" height="100" as="geometry" />
        </mxCell>
        <mxCell id="38GUtMRrNBMTa_zb7Rhy-20" style="edgeStyle=orthogonalEdgeStyle;rounded=0;orthogonalLoop=1;jettySize=auto;html=1;entryX=0.5;entryY=1;entryDx=0;entryDy=0;entryPerimeter=0;" edge="1" parent="1" source="38GUtMRrNBMTa_zb7Rhy-19" target="38GUtMRrNBMTa_zb7Rhy-13">
          <mxGeometry relative="1" as="geometry" />
        </mxCell>
        <mxCell id="38GUtMRrNBMTa_zb7Rhy-19" value="int temp = v[j - 1];&#xa;				v[j - 1] = v[j];&#xa;				v[j] = temp;" style="rounded=1;whiteSpace=wrap;html=1;absoluteArcSize=1;arcSize=14;strokeWidth=2;" vertex="1" parent="1">
          <mxGeometry x="290" y="485" width="100" height="45" as="geometry" />
        </mxCell>
        <mxCell id="38GUtMRrNBMTa_zb7Rhy-24" style="edgeStyle=orthogonalEdgeStyle;rounded=0;orthogonalLoop=1;jettySize=auto;html=1;entryX=0.5;entryY=0;entryDx=0;entryDy=0;" edge="1" parent="1" source="38GUtMRrNBMTa_zb7Rhy-25" target="38GUtMRrNBMTa_zb7Rhy-32">
          <mxGeometry relative="1" as="geometry">
            <mxPoint x="170" y="370" as="targetPoint" />
          </mxGeometry>
        </mxCell>
        <mxCell id="38GUtMRrNBMTa_zb7Rhy-25" value="int i = 0 i++" style="strokeWidth=2;html=1;shape=mxgraph.flowchart.loop_limit;whiteSpace=wrap;" vertex="1" parent="1">
          <mxGeometry x="120" y="280" width="100" height="60" as="geometry" />
        </mxCell>
        <mxCell id="38GUtMRrNBMTa_zb7Rhy-37" style="edgeStyle=orthogonalEdgeStyle;rounded=0;orthogonalLoop=1;jettySize=auto;html=1;entryX=0.5;entryY=0;entryDx=0;entryDy=0;" edge="1" parent="1" source="38GUtMRrNBMTa_zb7Rhy-26" target="38GUtMRrNBMTa_zb7Rhy-38">
          <mxGeometry relative="1" as="geometry">
            <mxPoint x="170" y="560" as="targetPoint" />
          </mxGeometry>
        </mxCell>
        <mxCell id="38GUtMRrNBMTa_zb7Rhy-26" value="" style="strokeWidth=2;html=1;shape=mxgraph.flowchart.loop_limit;whiteSpace=wrap;rotation=-180;" vertex="1" parent="1">
          <mxGeometry x="120" y="440" width="100" height="60" as="geometry" />
        </mxCell>
        <mxCell id="38GUtMRrNBMTa_zb7Rhy-27" value="&#xa;&lt;span style=&quot;color: rgb(0, 0, 0); font-family: Helvetica; font-size: 12px; font-style: normal; font-variant-ligatures: normal; font-variant-caps: normal; font-weight: 400; letter-spacing: normal; orphans: 2; text-align: center; text-indent: 0px; text-transform: none; widows: 2; word-spacing: 0px; -webkit-text-stroke-width: 0px; background-color: rgb(248, 249, 250); text-decoration-thickness: initial; text-decoration-style: initial; text-decoration-color: initial; float: none; display: inline !important;&quot;&gt;i &amp;lt; 1000000;&lt;span&gt;&amp;nbsp;&lt;/span&gt;&lt;/span&gt;&#xa;&#xa;" style="text;html=1;strokeColor=none;fillColor=none;align=center;verticalAlign=middle;whiteSpace=wrap;rounded=0;" vertex="1" parent="1">
          <mxGeometry x="132" y="455" width="76" height="30" as="geometry" />
        </mxCell>
        <mxCell id="38GUtMRrNBMTa_zb7Rhy-31" style="edgeStyle=orthogonalEdgeStyle;rounded=0;orthogonalLoop=1;jettySize=auto;html=1;entryX=0.5;entryY=1;entryDx=0;entryDy=0;entryPerimeter=0;" edge="1" parent="1" source="38GUtMRrNBMTa_zb7Rhy-32" target="38GUtMRrNBMTa_zb7Rhy-26">
          <mxGeometry relative="1" as="geometry" />
        </mxCell>
        <mxCell id="38GUtMRrNBMTa_zb7Rhy-32" value="sort(list, 7);" style="rounded=1;whiteSpace=wrap;html=1;absoluteArcSize=1;arcSize=14;strokeWidth=2;" vertex="1" parent="1">
          <mxGeometry x="120" y="360" width="100" height="45" as="geometry" />
        </mxCell>
        <mxCell id="38GUtMRrNBMTa_zb7Rhy-34" style="edgeStyle=orthogonalEdgeStyle;rounded=0;orthogonalLoop=1;jettySize=auto;html=1;entryX=0.5;entryY=0;entryDx=0;entryDy=0;entryPerimeter=0;" edge="1" parent="1" source="38GUtMRrNBMTa_zb7Rhy-33" target="38GUtMRrNBMTa_zb7Rhy-25">
          <mxGeometry relative="1" as="geometry" />
        </mxCell>
        <mxCell id="38GUtMRrNBMTa_zb7Rhy-33" value="StopWatch stop;&#xa;	int list[7] = { 6,4,1,7,3,9,8 };&#xa;	stop.setStartTime();" style="rounded=1;whiteSpace=wrap;html=1;absoluteArcSize=1;arcSize=14;strokeWidth=2;" vertex="1" parent="1">
          <mxGeometry x="110" y="160" width="120" height="60" as="geometry" />
        </mxCell>
        <mxCell id="38GUtMRrNBMTa_zb7Rhy-39" style="edgeStyle=orthogonalEdgeStyle;rounded=0;orthogonalLoop=1;jettySize=auto;html=1;" edge="1" parent="1" source="38GUtMRrNBMTa_zb7Rhy-38" target="38GUtMRrNBMTa_zb7Rhy-40">
          <mxGeometry relative="1" as="geometry">
            <mxPoint x="170" y="620" as="targetPoint" />
          </mxGeometry>
        </mxCell>
        <mxCell id="38GUtMRrNBMTa_zb7Rhy-38" value="stop.stop();" style="rounded=1;whiteSpace=wrap;html=1;absoluteArcSize=1;arcSize=14;strokeWidth=2;" vertex="1" parent="1">
          <mxGeometry x="120" y="530" width="100" height="40" as="geometry" />
        </mxCell>
        <mxCell id="38GUtMRrNBMTa_zb7Rhy-42" style="edgeStyle=orthogonalEdgeStyle;rounded=0;orthogonalLoop=1;jettySize=auto;html=1;entryX=0.5;entryY=0;entryDx=0;entryDy=0;" edge="1" parent="1" source="38GUtMRrNBMTa_zb7Rhy-40" target="38GUtMRrNBMTa_zb7Rhy-41">
          <mxGeometry relative="1" as="geometry" />
        </mxCell>
        <mxCell id="38GUtMRrNBMTa_zb7Rhy-40" value="cout &lt;&lt; stop.getElapsedTime();" style="strokeWidth=2;html=1;shape=mxgraph.flowchart.document2;whiteSpace=wrap;size=0.25;" vertex="1" parent="1">
          <mxGeometry x="85" y="600" width="170" height="60" as="geometry" />
        </mxCell>
        <mxCell id="38GUtMRrNBMTa_zb7Rhy-41" value="return 0;" style="rounded=1;whiteSpace=wrap;html=1;absoluteArcSize=1;arcSize=14;strokeWidth=2;" vertex="1" parent="1">
          <mxGeometry x="120" y="700" width="100" height="50" as="geometry" />
        </mxCell>
      </root>
    </mxGraphModel>
  </diagram>
</mxfile>
